<svg xmlns="http://www.w3.org/2000/svg" xmlns:xlink="http://www.w3.org/1999/xlink" viewBox="0 0 460.77 324.46"><defs><style>.cls-1{fill:none;}.cls-2{fill:#f2f2f2;}.cls-3{clip-path:url(#clip-path);}.cls-4{fill:#1d1d1d;}</style><clipPath id="clip-path" transform="translate(115.55 12.85)"><path class="cls-1" d="M157.36,19.68a12.73,12.73,0,0,1,11-4.41c4,.3,9.18,2.69,14.09,3.45a14.53,14.53,0,0,1,13.83,1.67c4.35,3.29,8.9,6.28,12,13.72,9.72,2.3,15.1,7.21,16.83,20.19,5.47,4.82,7.35,4.64,11.65,16.39,4,3.54,5.7,9.19,6.68,14.28,1,7.74,1.38,9,.21,13.93.51,3.6,11.25,7.45,11.2,37.49-.92,14-1.17,16.16-4.87,26.6,0,0,7.08,3.73,7.82,16.55s-5.14,47.07-25.77,52.27c.81,11-7.18,30.35-23.16,35.49-2.48,7.68-8.05,21.86-27.56,20.87-13,9-21.8,1.43-23.54-13.56,0,0-8.67-7.08-1.87-19-4.05-5.72-2.6-9-.54-10.79-6.26-15.51-3.51-21.13-1.18-30.93,0,0-6.44-15.05-.55-38.35-1-4.36-3.8-23.58,1-31.83,8.89-15.69-7.89-13.69,4.81-40.44a19,19,0,0,1-4-10.52c-.27-6.17,2.36-9.43,1.18-17.59s-4.27-11.25.54-30.84c-.63-7.16-5.08-5-3.35-17.32C153.85,22.69,157.36,19.68,157.36,19.68Zm-14.33,0a12.73,12.73,0,0,0-11-4.41c-3.95.3-9.18,2.69-14.09,3.45a14.51,14.51,0,0,0-13.82,1.67c-4.36,3.29-8.91,6.28-12,13.72C82.37,36.41,77,41.32,75.25,54.3c-5.47,4.82-7.34,4.64-11.65,16.39-4,3.54-5.69,9.19-6.68,14.28-1,7.74-1.37,9-.21,13.93-.51,3.6-11.25,7.45-11.19,37.49.91,14,1.16,16.16,4.86,26.6,0,0-7.07,3.73-7.82,16.55s5.14,47.07,25.77,52.27c-.81,11,7.18,30.35,23.16,35.49,2.48,7.68,8.05,21.86,27.56,20.87,13,9,21.8,1.43,23.54-13.56,0,0,8.67-7.08,1.87-19,4-5.72,2.6-9,.55-10.79,6.25-15.51,3.5-21.13,1.17-30.93,0,0,6.44-15.05.55-38.35,1-4.36,3.8-23.58-1-31.83-8.89-15.69,7.89-13.69-4.81-40.44a19,19,0,0,0,4-10.52c.28-6.17-2.35-9.43-1.17-17.59S148,64,143.19,44.36c.64-7.16,5.08-5,3.36-17.32C146.55,22.69,143,19.68,143,19.68Z"/></clipPath></defs><g id="Layer_2" data-name="Layer 2"><g id="aplicacion"><rect class="cls-2" x="115.55" y="12.85" width="300" height="300"/><g class="cls-3"><path class="cls-4" d="M225.71,181.49c-.23-2.38-1.9-4.52-4.28-4.05a105.8,105.8,0,0,0-15.32,3.15c-5,1.37-9.81,3-14.66,4.7a155.38,155.38,0,0,1-18.23,6A63.62,63.62,0,0,1,154,193.21c-6.27-.63-14-.17-20.94-1.3S120.2,188,117.46,181c-5.23-13.57-5.23-30-16.18-40.45-27.12-25.7-59,5.23-84,20.93-27.12,16.66-56.39,3.81-83.51-4A99.48,99.48,0,0,0-98,153.75a93.52,93.52,0,0,0-17,2.52c-1,.24,0,7.61.23,12.13,4.29-.63,8.58-1.14,12.88-1.58,16.15-1.27,31.85.87,47.56,5.39,19,5.47,37.82,10.47,57.57,5.47,16.66-4.28,28.79-14.75,43.3-24.27C57,147,67,141.52,79.16,140.09c20.22-2.62,25,19,25.69,34.74.24,8.32,7.14,14.75,14.48,18.57a54.33,54.33,0,0,0,13.94,5.36c9.92,2.45,20.78,3,30.73,3.82a118.2,118.2,0,0,0,15.07-.36,122.22,122.22,0,0,0,14.52-2.17c2.86-.48,6.43-1.19,8.33.95,2.14,1.9,1.43,5.71,4.05,7.61,17.13,13.09,39.49,5.95,58.93,7.94,4.72.13,9.36,0,13.75-.26l3.84-7.66c-4.68-.12-10-.08-15.44-.31-13.5-1.85-35.15,4.34-41.1-11.6C224.29,192,226,186.72,225.71,181.49Z" transform="translate(115.55 12.85)"/><path class="cls-4" d="M-110.23,8.05A101.79,101.79,0,0,0-93.8,12.66,113.12,113.12,0,0,0-77,14.61c29.08,1.05,56.44-8,85.47-11.32A64.67,64.67,0,0,1,54.65,15.9c4.09,3,8.54,6.6,13.41,10.22C80.28,33.55,93,42.77,106.76,48a70.29,70.29,0,0,0,7,2.27c8.23,2,13,1.2,22.7-1.38,2.23-1.26,6.25-1,8.2-2.55a43.46,43.46,0,0,0,5.8-5c1.36-1.37,2.65-2.81,3.91-4.27a15.49,15.49,0,0,1-3.26,7.51c-9,10.47-23.56,11.66-36.64,9.28-9.88-1.79-20-7.73-29.45-9.83-1.79-.86-5.52-3-7.3-3.83-5.19-2.63-8.08.46-13.18-2.35S54.37,32.2,49.36,29.17a68.63,68.63,0,0,0-16.29-8.12c-16.6-5.6-34.45-3.9-51.22,1.27C-38.85,29-60,32.55-81.34,29.63c-4.45-.48-8.9-1.1-13.32-1.78s-8.82-1.44-13.19-2.2c.72,5,.24,12.85,2.62,13.56a139,139,0,0,0,26.8,6.06,124.34,124.34,0,0,0,13.77.9,80.69,80.69,0,0,0,15.28-.86c15.29-2.53,29.56-7.76,44.31-11.81A75.94,75.94,0,0,1,8.25,31.32a63.5,63.5,0,0,1,13.09.4,62.38,62.38,0,0,1,17.85,5.12C43.83,39,48.42,41.17,53,43.37,85.82,57.77,118.41,73.47,149.1,92c7.62,4.52,15-3.09,16.9-10.47,2-8,3.8-17,6.81-25.12.75-2,1.58-4,2.5-5.92a33.42,33.42,0,0,1,3-5.32,23,23,0,0,1,23.4-10.54,50.88,50.88,0,0,1,7.4,2.16c4,.94,4.89,2,7.25,2.29,1.45,1.55,11.29,4.51,12.7,6,0,0-8.61-4.74-8.84-6.4a13.2,13.2,0,0,1-.24-1.4c8.55,1.09,17,2,25.52,3.34,2.65.43,5.34.87,8.08,1.35a44,44,0,0,1,12.37,4.4c1.85.84,3.68,1.69,5.47,2.53C294,59.2,322.07,72.05,342.23,50.82l-4.66-23.13c-13.36,7.48-28.11,10.57-43.81,7.48-4.41-.87-8.91-2-13.45-3.24-2.27-.63-4.56-1.3-6.86-2-5.9-2.28-12-2.3-18.16-1.71-2,.2-4.1.47-6.15.75-10.08,2.46-20,2.47-29.85,1.39a6.77,6.77,0,0,0-.86-1.92c-.77-1.19-1.52-2.37-2.25-3.53,1.29.11,2.58.18,3.86.23,12.34.43,24.36-2.22,35-10.62,1.88-.95,3.77-1.88,5.68-2.72A27.21,27.21,0,0,1,271.58,10c2.95.37,5.88.79,8.81,1.15,17.58,2.15,35.1,2,52.5-4.27l-3.81-18.79a180.5,180.5,0,0,1-41.8,3.37c-2.79-.07-5.57-.18-8.36-.32-7.93-1.44-14.63.82-20.8,4.6A45,45,0,0,0,252.06.2C243.8,7.3,237.37,19.44,225,19.44a57.13,57.13,0,0,1-8.41-.53c-1.59-.31-3.18-.64-4.78-1A113.46,113.46,0,0,0,203.2,5.86a22.32,22.32,0,0,0-14.76-7.44,29.35,29.35,0,0,0-4.3-.16,25,25,0,0,0-9.43,1.5,21,21,0,0,0-7.33,4.65c-.31.34-.62.69-.91,1a276.44,276.44,0,0,0-27.1,6.88c-2.49.4-5,.7-7.46.92a114,114,0,0,1-21.7-.17q-2.7-.27-5.39-.66a19,19,0,0,1-9.39-2.74C87.69,5.2,79.82-.27,71.49-3.84a55.65,55.65,0,0,0-6.32-2.29,34.86,34.86,0,0,0-19.55-.75c6.29,3.6,14.5,1,21.35,3.69A26.82,26.82,0,0,1,73.38-.54c5,3.08,9.13,7.48,13.53,11.39a91.43,91.43,0,0,0-9.54-3.52,56,56,0,0,0-6.55-1.54,34.19,34.19,0,0,0-6.24-.72C46.58-6.3,27.48-14.24,5.64-12.65c-29,2.38-57.34,9.52-86.59,8.75C-86.39-4-91.83-4.36-97.26-4.95s-10.86-1.4-16.3-2.47C-112.84-1.71-112.84,7.1-110.23,8.05ZM204,28.06c-14-4.58-32.81-2.44-38.6,13.27-1.37,2.63-2.58,5.38-3.71,8.14s-2.18,5.53-3.19,8.26c-.75,2.29-1.5,4.58-2.31,6.82s-1.65,4.43-2.61,6.55c-1.66,3.56-4.37,9.76-7.94,8.33-5.47-2.14-12.49-9.56-17.91-11.78-2.59-1.08-5.18-2.18-7.76-3.28,13.75,1.43,28.66.71,37.06-11.17a17,17,0,0,0,2.59-7.14c.35-2.8.15-9.71,1.08-14.64.57-3,2.45-5.16,2.53-5.54,6.73-6.51,12-7.11,21.52-6,6.72.67,13.21,1.94,19.69,3.17A70,70,0,0,0,209.12,29C207.43,28.67,205.74,28.37,204,28.06ZM176.85,14.63l4.31-3.25a81.91,81.91,0,0,1,16.39-2.71A38.79,38.79,0,0,0,200,15.48C192.3,14,184.53,13.21,176.85,14.63ZM174.62,1.07a45,45,0,0,1,6.5-.93c2.19-.19,4.36-.29,6.38-.47A12.26,12.26,0,0,1,193.3.74a9.55,9.55,0,0,1,1,.58,89.89,89.89,0,0,0-15.28,2.52,109,109,0,0,0-11.82,1.48A17.92,17.92,0,0,1,174.62,1.07ZM73,8.5a26.93,26.93,0,0,1,6.67,1.9c10.71,5,18.56,15.7,31,16.39q3.11.39,6.19.54a67,67,0,0,0,18.54-1.47q2.73-.66,5.38-1.41c1.77-.49,3.52-1,5.26-1.53l1.7-.5c.36,1.51.67,3.24,2.87,4.53a86.23,86.23,0,0,1-10.1,5.25,28.29,28.29,0,0,1-7.06,1.59,28,28,0,0,1-7.7-.35,61.91,61.91,0,0,1-6.61-1c-4.38-.87-8.72-2.11-12.88-3.31-2.13-.6-4.19-1.23-6.21-2A69.83,69.83,0,0,1,83.22,18c-3.94-2.93-7.9-5.8-11.89-8.54L69,7.93A18.37,18.37,0,0,1,73,8.5Z" transform="translate(115.55 12.85)"/><path class="cls-4" d="M86.53,152.46c-10.23-5-21.65-1-30.45,5.47-27.36,20.7-56.15,37.83-91.36,29-20.46-5.23-40-12.61-60.84-9.18a86.92,86.92,0,0,0-17.2,4.42c-1.19.48.24,6.9.48,11,6.3-1.37,12.62-2.53,18.94-3.59a84.76,84.76,0,0,1,23.17-.22c24.5,2.85,47.34,10.94,72.56,7.14,22.61-3.57,38.07-18.8,57.1-30.22,7.14-4,18.32-7.85,23.8.24,5,7.61,1.9,16.65,2.85,25.22.24,2.38,1.43,5,4,5,12.38,1.19,23.8,4.75,34.89,9.55q8,3.51,15.62,7.57t15.14,8.64a99.23,99.23,0,0,0,11.81,5.27,63.55,63.55,0,0,0,25.64,4.06c6.35,0,12.72-.07,19.08-.25,12.73-.37,25.44-1,38-1.5,5.23.34,10.4.66,15.58.82s10.41.07,15.68-.24l-2.87-7.15c-4.32,0-8.64,0-13-.13-18.34-1.19-36.9,1.67-55.22.95a116.34,116.34,0,0,1-19.77-3c-4.83-1.4-9.68-2.77-14.52-4.18s-9.67-2.84-14.47-4.36c-10.48-3.74-21.18-6.44-31.71-9.85-5.27-1.7-10.49-3.57-15.62-5.77-7.88-3.76-20.73-5.9-19.06-17.32C96.52,169.83,96.52,157.7,86.53,152.46Z" transform="translate(115.55 12.85)"/><path class="cls-4" d="M-113.32,275.23c5.71,3.57,14,0,21.89-1.43,4.92-.91,9.78-1.89,14.61-2.88s9.62-2,14.4-2.92a162.15,162.15,0,0,1,43.78-3.76q3.67.17,7.37.48c3.83.25,7.63,1.44,11.2.25q4.2-1.39,8.38-2.71t8.37-2.55c2.37-.81,4.75-1.6,7.15-2.35,26.06-11.43,55.33-14.76,82.4-4a72.77,72.77,0,0,1,8.26,3.51c2.32,1,4.59,2.15,6.83,3.33s4.45,2.41,6.65,3.66a122.82,122.82,0,0,0,12.5,5.9c2.14.86,4.3,1.68,6.48,2.44,2.38.63,4.77,1.21,7.16,1.76s4.8,1.05,7.21,1.5c19.43,2.54,38.94,2.54,58.45,7.78a52.29,52.29,0,0,0,13.28,1.92c1.94.14,3.87.27,5.81.39q5.8.36,11.64.58c3,.07,6.05.12,9.07.14,21.14.16,42.21-.92,63.43-2.33l-4.75-11.79a464.14,464.14,0,0,1-75,1.52l-9.42-.53c-3.17-.18-6.37-.36-9.62-.52-19-1-38.48-1-57.23-4.82-2.23-.6-4.45-1.3-6.64-2.09q-2.52-1-5-2.13c-1.63-.77-3.25-1.58-4.83-2.45-2.42-1.33-4.78-2.74-7.11-4.2s-4.63-3-6.91-4.47c-4.58-3-9.11-6.06-13.78-8.82A98.9,98.9,0,0,0,101.89,236c-2.69-.38-5.37-.68-8.06-.92-19.43-1.29-38.94-.34-58,4l-6.24,1.21c-2.65.58-5.29,1.2-7.93,1.82-7.92,1.87-15.8,3.84-23.71,5.27a67.32,67.32,0,0,1-7.51.37c-10-.06-20-2-30.2-2.49s-19.75,2.38-29.46,4.61c-4.94,1.34-9.87,2.68-14.76,4.07a284.83,284.83,0,0,0-28.82,9.64C-114.51,264.28-115.94,273.8-113.32,275.23Z" transform="translate(115.55 12.85)"/><path class="cls-4" d="M294.47,128.2a112.88,112.88,0,0,0-41-41.67C236.66,76.09,208.82,65.86,196.45,88c-6.42,11.6-9.77,24.4-16.76,35.29a50.1,50.1,0,0,1-8.46,10.15c-6.07,5.11-10.89,3.15-15.11-.92a165.23,165.23,0,0,0-56.92-47A167.39,167.39,0,0,0,82.1,78C52,66.1,18.73,67.05-12.68,76.33c-25.93,7.61-52.82,4-79.51,4.29-4.8-.08-9.62-.25-14.47-.48-.71-.24-1.42,6.42-1.9,10.46,7.53.85,15,1.38,22.48,1.8,22,.82,44.14,5.58,66-.37C17.77,81.8,58,73,94.36,89.54a115.67,115.67,0,0,1,17.08,9,97.72,97.72,0,0,1,37.9,44.66c1.67,4,6.66,6.43,11.42,5.24a28.16,28.16,0,0,0,14.57-6.86,51.41,51.41,0,0,0,9.85-11.28c5.68-8.51,10-18.5,15.08-27.07,11.65-19.27,37.35-14.75,53.13-3.52a94.52,94.52,0,0,1,13.48,10.66c10.71,10.23,12.85,24.74,20.46,37.12,10.47,17.36,32.12,5.71,45.26-1.84L341,124.44C328.49,135.33,305.42,147.7,294.47,128.2Z" transform="translate(115.55 12.85)"/><path class="cls-4" d="M304,86.8c-14.85-9.44-28.81-18.63-43.67-26.17q-3.19-1.62-6.42-3.11c-4.49-1.73-9.15-3.55-13.91-5.21-2.39-.83-4.79-1.62-7.22-2.34-11.81-3.41-24.42-5.31-36.58-1.71a23.88,23.88,0,0,0-7.32,5.06,22.85,22.85,0,0,0-5,8c-5.47,14-5.71,29.26-14.75,42.59-3.33,5-9.76,6.42-14,2.61-22.3-18.88-48.32-32-75.22-43.25q-8.07-3.37-16.22-6.56c-12.29-4.67-24-11.33-37-13-20.46-2.85-39,7.62-59.48,11.19A218.52,218.52,0,0,1-68,57.76q-9.26,0-18.53-.95A185.89,185.89,0,0,1-105,54c-.24,4.28-1.19,11.18,0,11.42a122.15,122.15,0,0,0,19.49,4.1c29,3.75,57.59-1.49,85.91-9.81,23.31-6.9,47.82-1,70.5,6.15a195.74,195.74,0,0,1,18.81,7.48,212.79,212.79,0,0,1,65.81,47.51,7.62,7.62,0,0,0,7.61,2.38c7.85-1.9,11.66-9,15.23-15.47,8.09-15,6.18-36.16,22.6-44.25a30.41,30.41,0,0,1,6.36-2.22,35.08,35.08,0,0,1,6.63-.85,59,59,0,0,1,20.19,3.43c2.18.73,4.32,1.54,6.39,2.39A124,124,0,0,1,258,74.9C275,85,290.43,98.69,304.94,112c13.32,12.13,30.45-.72,40.25-11.4l0-25.22C335.39,87.27,319.21,96.31,304,86.8Z" transform="translate(115.55 12.85)"/><path class="cls-4" d="M267.59,298.31l-6.56-.09c-2.18,0-4.36-.07-6.53-.14q-6-.61-12-1.14l-6-.52a65.12,65.12,0,0,1-19.8-3.85c-19.51-7.14-39.49-12.61-60.33-10.63q-3-.07-6-.3c-2-.15-4-.36-5.92-.66q-4.2-.68-8.44-1.39c-2.83-.48-5.69-1-8.57-1.54-4-.71-7.37-2.61-11.22-4.14-2.2-1-4.41-1.87-6.65-2.7-13.77-4.34-25.9-12.67-40.65-14.81C52,254,37.05,261.87,23.55,270.51a65.66,65.66,0,0,0-7.34,5.23q-2.57,1.59-5.14,3.13c-1.72,1-3.45,2-5.19,3a31,31,0,0,1-13.5,3.4c-2.09-.09-4.19-.28-6.3-.46s-4.23-.37-6.37-.53a175.84,175.84,0,0,0-22.83-.43c-6.05.24-12.09.73-18.09,1.41a339,339,0,0,0-53.54,10.91c-1.19.24-.71,8.81-.71,14,22.13-1.66,44-4.76,66.14-5.47,10.61-.3,21.26.64,31.89,1.36q3.19.23,6.39.4c8,1.36,14.23-1.58,19.83-6.06a70.29,70.29,0,0,0,5.41-4.88c1.31-1.74,2.67-3.49,4.08-5.19s2.88-3.39,4.4-5c9.13-10.4,20.79-21.82,35.54-21.58,11.36.37,21,6.28,30.89,11.34L62,271.5,59.77,288l105.08,14,2.43.32c5.62.72,11.56,1.44,17.16,2.29l3.52.47,12.57,1.68,1.63-12.27a110.41,110.41,0,0,1,11.66,6.41c6,3.81,12.85,4.28,19.41,5.75,1.9.36,3.82.71,5.73,1.09a110.75,110.75,0,0,1,11.5,2.92c3.8,1.19,7.85,1,11.78.92h7.26q14.52,0,29-.15c5.66,0,10.51,0,14.48,0h12.35l-.23-14.2C305.89,297.59,286.86,298.54,267.59,298.31Z" transform="translate(115.55 12.85)"/><path class="cls-4" d="M-54.79,147.47c21.41,5.47,43.78,15,64.47,3.33,28.55-16.18,61.39-45.68,93-21.16,7.84,5.22,11.47,12.71,14.12,20.8s4.31,16.77,8.23,24.39c7.62,15,27.6,12.37,41.57,9A66.87,66.87,0,0,0,181.3,178c4.66-2.17,9.32-4.55,14-7,9.28-4.89,18.48-10,27.84-14.27,4-1.91,8.32-4.05,12.84-2.86,3.33,1.19,4.76,4.76,4.76,7.85-.47,15.94-1.9,39,20.39,38a118.14,118.14,0,0,0,14.55.82c4.88,0,9.64-.25,13.8-.33l9.46-10c-4,.5-8.56,1.06-13.26,1.28a62,62,0,0,1-14-.71c-8.14-1.18-16.7-5.7-18.13-15-1.67-13.56,2.85-31.64-10.71-39.26-8.09-4.52-17.6,0-25,5-8.09,5.39-15.67,11.74-23.31,17.72-3.82,3-7.66,5.89-11.57,8.52a67.88,67.88,0,0,1-11,6.64,52.36,52.36,0,0,1-12.59,4.29c-26.68,6.13-32.15-27.18-43.34-45a52.94,52.94,0,0,0-11-13.33,34.67,34.67,0,0,0-15.45-7.57c-30.68-6.46-56.13,15.19-84,24.47-10.23,3.56-20.7,4-31.4,2.38-22.61-3.81-43.78-9.28-66-12.42a107,107,0,0,0-22.5,1.47c-1,.24-1,7.85-1.19,12.37,5.5.21,11,.3,16.47.46A218.28,218.28,0,0,1-54.79,147.47Z" transform="translate(115.55 12.85)"/><path class="cls-4" d="M267.38,238.31c-6.48-.1-12.94-.46-19.62-.71-13.32-.69-26.82.61-40.27,1.21-4.48.2-9,.31-13.42.25-13.38.72-26-2.32-37.94-8.29a107.3,107.3,0,0,1-11.8-6.92,146.57,146.57,0,0,0-19-10.72,140.37,140.37,0,0,0-18.69-6.64c-10.57-2.87-21.52-2.87-31-9.06-4-2.86-1.19-9-1.43-13.56-.24-3.81-2.14-8.09-6.42-8.33-4.52-.24-8.33,2.38-12.38,4.52-21.65,12.13-42.58,26.17-67.8,25.7-15.7-.24-30.69-3.57-46.63-5.95-8.81-1.43-17.61-2.14-26.27-.75a106.3,106.3,0,0,0-13.27,3.13,129.93,129.93,0,0,0-12.81,4.52c-1.18.47-1,8.8,0,8.8a139.77,139.77,0,0,0,14.78-.92c4.9-.55,9.77-1.33,14.65-2.23,21.49-3.27,42.9.77,64.31,2.2C5.4,216,25.15,203.62,46.09,196c4.52-1.66,10.46-3.81,13.56-.47,5,5.47,10,10.7,17.84,11.65,12.13,1.43,24,2.38,35.68,5.52a72.18,72.18,0,0,1,14.46,6.6C132.2,222,136.6,225,141,228c4,2.7,8.06,5.35,12.17,7.73,12.31,7.17,25.34,12.05,40.44,10.5q6.53-.27,13.07-.58c13.09-.6,26.26-1.1,39.31-.45,5.45.41,10.83.79,16.22,1a237.31,237.31,0,0,0,32.5-.92l-7.84-7.47Q277.1,238.46,267.38,238.31Z" transform="translate(115.55 12.85)"/><path class="cls-4" d="M246.5,253.81c-16.13-1.42-32.2-.84-48.26-.46-5.36.12-10.72.22-16.12.05a64.23,64.23,0,0,1-24.65-7.8,127.9,127.9,0,0,1-11.08-6.74,97.23,97.23,0,0,0-14.16-10.25A112.41,112.41,0,0,0,116.86,221c-15.58-6.47-32.71-3.62-48.65-7.18-16.18-3.57-32.59-4.76-47.58,1.42C8,220.75-4.83,225.27-19.1,223.6c-20.23-2.62-40.45-6.66-60.32-1.55q-8,2.38-16,5.18c-5.29,1.88-10.55,3.9-15.79,6.12-1.19.72-2.61,9.52-.24,10.47,6.9,2.38,15.47-1.42,23.56-3.57,4.68-1.26,9.3-2.53,13.88-3.76,23.71-6.23,48.22-1.47,72.48-2.18,11.66-.24,21.65-7.14,33.07-10.23a24.1,24.1,0,0,1,7.14-.72c13.8.72,27.36,1.19,41.16,0A80.81,80.81,0,0,1,111.46,228a124.46,124.46,0,0,1,14.83,6.49A111.89,111.89,0,0,1,140.15,243c4,2.61,8.12,5.26,12.28,7.92a66.26,66.26,0,0,0,15.49,7.19,78.8,78.8,0,0,0,8.06,2.08c14.28,2.83,28.8,1.88,43.21,2.51l9.19.16,9.22.13c5,.32,10,.63,14.87.86a389.62,389.62,0,0,0,58.93-1.79l-8.23-8.93a240.66,240.66,0,0,1-37.9,1.78C259,254.77,252.75,254.37,246.5,253.81Z" transform="translate(115.55 12.85)"/><path class="cls-4" d="M277.58,160.55A100.58,100.58,0,0,1,272.79,147c-1.37-4.67-2.65-9.4-4.25-13.92-2.62-7.73-6.19-15.11-13.32-20.1-16.18-10.71-38.07-12.14-50.68,3.81-6.43,8.2-12,17.13-18.5,24.92a72.81,72.81,0,0,1-10.61,10.6c-6.34,4.68-14.43,10.17-22.83,7.58a6.62,6.62,0,0,1-4.69-3.37c-8.56-15.71-13.56-32.36-28.07-43.78A102.68,102.68,0,0,0,83.59,94.11c-13.24-4-26.8-4.22-40.83-1.36-31.17,6.42-59,17.84-90.65,14-15.23-2.14-30-3.57-44.9-3.38-5.95,0-11.92.17-17.91.29-1,0-1.19,6.66-2.14,10.71,7.25.35,14.51.73,21.76,1.27,13.69.87,27,3,41.05,5.39,23.55,3.8,46.63,2.85,68.52-5.71,24.5-9.76,51.63-18.08,77.08-8.09a53.59,53.59,0,0,1,12.34,5.95c18.66,12.13,28.31,34.53,37.63,55,1.9,4,8.8,2.14,13.31,1.45a34.85,34.85,0,0,0,14.27-5.25,82.68,82.68,0,0,0,12-9.48c3.34-3.13,6.46-6.47,9.38-9.8,13.56-15.47,32.59-33.07,53-22.37,16.18,8.57,14.28,29,17.61,45.68.47,3.1,2.38,5.24,4.51,7.27A22.85,22.85,0,0,0,281.63,181c9.22,1.57,20.23-.4,28.32-2.92l11.74-14.81C307.56,168.4,285.43,177.68,277.58,160.55Z" transform="translate(115.55 12.85)"/></g></g></g></svg>